<svg xmlns="http://www.w3.org/2000/svg" width="436.41" height="400.84" viewBox="0 0 436.41 400.84"><path d="M137,53.66l75.39,18.83V400.84L137,357.53Z" fill="#73ff7b"/><path d="M223.93,185.72V72.92l212.48-53v87.38Z" fill="#73afff"/><path d="M299.48,167.78v97.73l-75.41,35.17V196.22Z" fill="#ffed73"/><path d="M224.09,310.67,299.32,275V357.6l-75.23,43.22Z" fill="#ffa873"/><path d="M127.45,154,62.05,129.9v-95l65.4,16.34Z" fill="#ffa873"/><path d="M54.48,127.12,0,107V19.63L54.48,33Z" fill="#ffed73"/><path d="M300.29,10.83C318.68,7.13,355.94,0,355.94,0l77.4,12.85s-40.57,9.39-56.17,12.8Z" fill="#ffed73"/><path d="M367.38,28.89,218.21,63.83l-.33-.08V27.82l.33,0c.48,0,70.27-14.22,70.27-14.22Z" fill="#ff7373"/><path d="M68.83,28.89,218,63.83l.33-.08V27.82l-.33,0c-.48,0-70.27-14.22-70.27-14.22Z" fill="#ff7373"/><path d="M135.93,10.83C117.53,7.13,80.28,0,80.28,0L2.88,12.85s40.56,9.39,56.17,12.8Z" fill="#ffa873"/></svg>